<mxfile host="app.diagrams.net" agent="Mozilla/5.0 (Windows NT 10.0; Win64; x64) AppleWebKit/537.36 (KHTML, like Gecko) Chrome/131.0.0.0 Safari/537.36 Edg/131.0.0.0" version="24.8.6">
  <diagram id="C5RBs43oDa-KdzZeNtuy" name="Page-1">
    <mxGraphModel grid="1" page="1" gridSize="10" guides="1" tooltips="1" connect="1" arrows="1" fold="1" pageScale="1" pageWidth="827" pageHeight="1169" math="0" shadow="0">
      <root>
        <mxCell id="WIyWlLk6GJQsqaUBKTNV-0" />
        <mxCell id="WIyWlLk6GJQsqaUBKTNV-1" parent="WIyWlLk6GJQsqaUBKTNV-0" />
        <mxCell id="WIyWlLk6GJQsqaUBKTNV-2" value="" style="rounded=0;html=1;jettySize=auto;orthogonalLoop=1;fontSize=11;endArrow=block;endFill=0;endSize=8;strokeWidth=1;shadow=0;labelBackgroundColor=none;edgeStyle=orthogonalEdgeStyle;" edge="1" parent="WIyWlLk6GJQsqaUBKTNV-1" source="WIyWlLk6GJQsqaUBKTNV-3" target="ciezRnkLvZJ_yGblxe65-0">
          <mxGeometry relative="1" as="geometry">
            <mxPoint x="220" y="180" as="targetPoint" />
          </mxGeometry>
        </mxCell>
        <mxCell id="WIyWlLk6GJQsqaUBKTNV-3" value="Start" style="rounded=1;whiteSpace=wrap;html=1;fontSize=12;glass=0;strokeWidth=1;shadow=0;" vertex="1" parent="WIyWlLk6GJQsqaUBKTNV-1">
          <mxGeometry x="160" y="80" width="120" height="40" as="geometry" />
        </mxCell>
        <mxCell id="ciezRnkLvZJ_yGblxe65-2" value="" style="edgeStyle=orthogonalEdgeStyle;rounded=0;orthogonalLoop=1;jettySize=auto;html=1;" edge="1" parent="WIyWlLk6GJQsqaUBKTNV-1" source="ciezRnkLvZJ_yGblxe65-0" target="ciezRnkLvZJ_yGblxe65-1">
          <mxGeometry relative="1" as="geometry" />
        </mxCell>
        <mxCell id="ciezRnkLvZJ_yGblxe65-34" value="" style="edgeStyle=orthogonalEdgeStyle;rounded=0;orthogonalLoop=1;jettySize=auto;html=1;entryX=0;entryY=0.5;entryDx=0;entryDy=0;" edge="1" parent="WIyWlLk6GJQsqaUBKTNV-1" source="ciezRnkLvZJ_yGblxe65-0" target="ciezRnkLvZJ_yGblxe65-6">
          <mxGeometry relative="1" as="geometry">
            <mxPoint x="220" y="290" as="targetPoint" />
            <Array as="points">
              <mxPoint x="220" y="290" />
            </Array>
          </mxGeometry>
        </mxCell>
        <mxCell id="ciezRnkLvZJ_yGblxe65-0" value="N" style="shape=parallelogram;perimeter=parallelogramPerimeter;whiteSpace=wrap;html=1;fixedSize=1;" vertex="1" parent="WIyWlLk6GJQsqaUBKTNV-1">
          <mxGeometry x="160" y="160" width="120" height="60" as="geometry" />
        </mxCell>
        <mxCell id="ciezRnkLvZJ_yGblxe65-4" value="" style="edgeStyle=orthogonalEdgeStyle;rounded=0;orthogonalLoop=1;jettySize=auto;html=1;" edge="1" parent="WIyWlLk6GJQsqaUBKTNV-1" source="ciezRnkLvZJ_yGblxe65-1" target="ciezRnkLvZJ_yGblxe65-3">
          <mxGeometry relative="1" as="geometry" />
        </mxCell>
        <mxCell id="ciezRnkLvZJ_yGblxe65-7" value="" style="edgeStyle=orthogonalEdgeStyle;rounded=0;orthogonalLoop=1;jettySize=auto;html=1;" edge="1" parent="WIyWlLk6GJQsqaUBKTNV-1" source="ciezRnkLvZJ_yGblxe65-1" target="ciezRnkLvZJ_yGblxe65-6">
          <mxGeometry relative="1" as="geometry" />
        </mxCell>
        <mxCell id="ciezRnkLvZJ_yGblxe65-1" value="N &amp;lt; 4&amp;nbsp;" style="rhombus;whiteSpace=wrap;html=1;" vertex="1" parent="WIyWlLk6GJQsqaUBKTNV-1">
          <mxGeometry x="324" y="148" width="90" height="80" as="geometry" />
        </mxCell>
        <mxCell id="ciezRnkLvZJ_yGblxe65-3" value="Xếp loại k đạt" style="rounded=1;whiteSpace=wrap;html=1;" vertex="1" parent="WIyWlLk6GJQsqaUBKTNV-1">
          <mxGeometry x="530" y="158" width="120" height="60" as="geometry" />
        </mxCell>
        <mxCell id="ciezRnkLvZJ_yGblxe65-5" value="đúng" style="text;html=1;align=center;verticalAlign=middle;resizable=0;points=[];autosize=1;strokeColor=none;fillColor=none;" vertex="1" parent="WIyWlLk6GJQsqaUBKTNV-1">
          <mxGeometry x="490" y="170" width="50" height="30" as="geometry" />
        </mxCell>
        <mxCell id="ciezRnkLvZJ_yGblxe65-9" value="" style="edgeStyle=orthogonalEdgeStyle;rounded=0;orthogonalLoop=1;jettySize=auto;html=1;" edge="1" parent="WIyWlLk6GJQsqaUBKTNV-1" source="ciezRnkLvZJ_yGblxe65-6" target="ciezRnkLvZJ_yGblxe65-8">
          <mxGeometry relative="1" as="geometry" />
        </mxCell>
        <mxCell id="ciezRnkLvZJ_yGblxe65-10" value="đúng" style="edgeLabel;html=1;align=center;verticalAlign=middle;resizable=0;points=[];" connectable="0" vertex="1" parent="ciezRnkLvZJ_yGblxe65-9">
          <mxGeometry x="-0.3855" y="4" relative="1" as="geometry">
            <mxPoint x="11" y="-6" as="offset" />
          </mxGeometry>
        </mxCell>
        <mxCell id="ciezRnkLvZJ_yGblxe65-12" value="" style="edgeStyle=orthogonalEdgeStyle;rounded=0;orthogonalLoop=1;jettySize=auto;html=1;" edge="1" parent="WIyWlLk6GJQsqaUBKTNV-1" source="ciezRnkLvZJ_yGblxe65-6" target="ciezRnkLvZJ_yGblxe65-11">
          <mxGeometry relative="1" as="geometry" />
        </mxCell>
        <mxCell id="ciezRnkLvZJ_yGblxe65-6" value="4 &amp;lt;= n &amp;lt;= 6" style="rhombus;whiteSpace=wrap;html=1;" vertex="1" parent="WIyWlLk6GJQsqaUBKTNV-1">
          <mxGeometry x="324" y="250" width="90" height="80" as="geometry" />
        </mxCell>
        <mxCell id="ciezRnkLvZJ_yGblxe65-8" value="Xếp loại trung bình" style="rounded=1;whiteSpace=wrap;html=1;" vertex="1" parent="WIyWlLk6GJQsqaUBKTNV-1">
          <mxGeometry x="520" y="260" width="120" height="60" as="geometry" />
        </mxCell>
        <mxCell id="ciezRnkLvZJ_yGblxe65-14" value="" style="edgeStyle=orthogonalEdgeStyle;rounded=0;orthogonalLoop=1;jettySize=auto;html=1;" edge="1" parent="WIyWlLk6GJQsqaUBKTNV-1" source="ciezRnkLvZJ_yGblxe65-11" target="ciezRnkLvZJ_yGblxe65-13">
          <mxGeometry relative="1" as="geometry" />
        </mxCell>
        <mxCell id="ciezRnkLvZJ_yGblxe65-19" value="" style="edgeStyle=orthogonalEdgeStyle;rounded=0;orthogonalLoop=1;jettySize=auto;html=1;" edge="1" parent="WIyWlLk6GJQsqaUBKTNV-1" source="ciezRnkLvZJ_yGblxe65-11" target="ciezRnkLvZJ_yGblxe65-18">
          <mxGeometry relative="1" as="geometry" />
        </mxCell>
        <mxCell id="ciezRnkLvZJ_yGblxe65-11" value="6 &amp;lt; n &amp;lt;= 8" style="rhombus;whiteSpace=wrap;html=1;" vertex="1" parent="WIyWlLk6GJQsqaUBKTNV-1">
          <mxGeometry x="324" y="368" width="90" height="80" as="geometry" />
        </mxCell>
        <mxCell id="ciezRnkLvZJ_yGblxe65-13" value="Xếp loại khá" style="rounded=1;whiteSpace=wrap;html=1;" vertex="1" parent="WIyWlLk6GJQsqaUBKTNV-1">
          <mxGeometry x="520" y="378" width="120" height="60" as="geometry" />
        </mxCell>
        <mxCell id="ciezRnkLvZJ_yGblxe65-15" value="đúng" style="text;html=1;align=center;verticalAlign=middle;resizable=0;points=[];autosize=1;strokeColor=none;fillColor=none;" vertex="1" parent="WIyWlLk6GJQsqaUBKTNV-1">
          <mxGeometry x="490" y="368" width="50" height="30" as="geometry" />
        </mxCell>
        <mxCell id="ciezRnkLvZJ_yGblxe65-16" value="sai" style="text;html=1;align=center;verticalAlign=middle;resizable=0;points=[];autosize=1;strokeColor=none;fillColor=none;" vertex="1" parent="WIyWlLk6GJQsqaUBKTNV-1">
          <mxGeometry x="374" y="220" width="40" height="30" as="geometry" />
        </mxCell>
        <mxCell id="ciezRnkLvZJ_yGblxe65-17" value="sai" style="text;html=1;align=center;verticalAlign=middle;resizable=0;points=[];autosize=1;strokeColor=none;fillColor=none;" vertex="1" parent="WIyWlLk6GJQsqaUBKTNV-1">
          <mxGeometry x="374" y="330" width="40" height="30" as="geometry" />
        </mxCell>
        <mxCell id="ciezRnkLvZJ_yGblxe65-21" value="" style="edgeStyle=orthogonalEdgeStyle;rounded=0;orthogonalLoop=1;jettySize=auto;html=1;" edge="1" parent="WIyWlLk6GJQsqaUBKTNV-1" source="ciezRnkLvZJ_yGblxe65-18" target="ciezRnkLvZJ_yGblxe65-20">
          <mxGeometry relative="1" as="geometry" />
        </mxCell>
        <mxCell id="ciezRnkLvZJ_yGblxe65-25" value="" style="edgeStyle=orthogonalEdgeStyle;rounded=0;orthogonalLoop=1;jettySize=auto;html=1;" edge="1" parent="WIyWlLk6GJQsqaUBKTNV-1" source="ciezRnkLvZJ_yGblxe65-18" target="ciezRnkLvZJ_yGblxe65-24">
          <mxGeometry relative="1" as="geometry" />
        </mxCell>
        <mxCell id="ciezRnkLvZJ_yGblxe65-18" value="8 &amp;lt; n &amp;lt;= 9" style="rhombus;whiteSpace=wrap;html=1;" vertex="1" parent="WIyWlLk6GJQsqaUBKTNV-1">
          <mxGeometry x="380" y="528" width="90" height="80" as="geometry" />
        </mxCell>
        <mxCell id="ciezRnkLvZJ_yGblxe65-20" value="Xếp loại giỏi" style="rounded=1;whiteSpace=wrap;html=1;" vertex="1" parent="WIyWlLk6GJQsqaUBKTNV-1">
          <mxGeometry x="570" y="538" width="120" height="60" as="geometry" />
        </mxCell>
        <mxCell id="ciezRnkLvZJ_yGblxe65-22" value="đúng" style="text;html=1;align=center;verticalAlign=middle;resizable=0;points=[];autosize=1;strokeColor=none;fillColor=none;" vertex="1" parent="WIyWlLk6GJQsqaUBKTNV-1">
          <mxGeometry x="490" y="538" width="50" height="30" as="geometry" />
        </mxCell>
        <mxCell id="ciezRnkLvZJ_yGblxe65-23" value="sai" style="text;html=1;align=center;verticalAlign=middle;resizable=0;points=[];autosize=1;strokeColor=none;fillColor=none;" vertex="1" parent="WIyWlLk6GJQsqaUBKTNV-1">
          <mxGeometry x="420" y="468" width="40" height="30" as="geometry" />
        </mxCell>
        <mxCell id="ciezRnkLvZJ_yGblxe65-27" value="" style="edgeStyle=orthogonalEdgeStyle;rounded=0;orthogonalLoop=1;jettySize=auto;html=1;" edge="1" parent="WIyWlLk6GJQsqaUBKTNV-1" source="ciezRnkLvZJ_yGblxe65-24" target="ciezRnkLvZJ_yGblxe65-26">
          <mxGeometry relative="1" as="geometry" />
        </mxCell>
        <mxCell id="ciezRnkLvZJ_yGblxe65-31" value="" style="edgeStyle=orthogonalEdgeStyle;rounded=0;orthogonalLoop=1;jettySize=auto;html=1;" edge="1" parent="WIyWlLk6GJQsqaUBKTNV-1" source="ciezRnkLvZJ_yGblxe65-24" target="ciezRnkLvZJ_yGblxe65-30">
          <mxGeometry relative="1" as="geometry" />
        </mxCell>
        <mxCell id="ciezRnkLvZJ_yGblxe65-36" value="" style="edgeStyle=orthogonalEdgeStyle;rounded=0;orthogonalLoop=1;jettySize=auto;html=1;" edge="1" parent="WIyWlLk6GJQsqaUBKTNV-1" source="ciezRnkLvZJ_yGblxe65-24" target="ciezRnkLvZJ_yGblxe65-35">
          <mxGeometry relative="1" as="geometry" />
        </mxCell>
        <mxCell id="ciezRnkLvZJ_yGblxe65-24" value="9 &amp;lt; n &amp;lt;= 10" style="rhombus;whiteSpace=wrap;html=1;" vertex="1" parent="WIyWlLk6GJQsqaUBKTNV-1">
          <mxGeometry x="380" y="688" width="90" height="80" as="geometry" />
        </mxCell>
        <mxCell id="ciezRnkLvZJ_yGblxe65-26" value="Xếp loại xuất sắc" style="rounded=1;whiteSpace=wrap;html=1;" vertex="1" parent="WIyWlLk6GJQsqaUBKTNV-1">
          <mxGeometry x="570" y="698" width="120" height="60" as="geometry" />
        </mxCell>
        <mxCell id="ciezRnkLvZJ_yGblxe65-28" value="đúng" style="text;html=1;align=center;verticalAlign=middle;resizable=0;points=[];autosize=1;strokeColor=none;fillColor=none;" vertex="1" parent="WIyWlLk6GJQsqaUBKTNV-1">
          <mxGeometry x="490" y="698" width="50" height="30" as="geometry" />
        </mxCell>
        <mxCell id="ciezRnkLvZJ_yGblxe65-29" value="sai" style="text;html=1;align=center;verticalAlign=middle;resizable=0;points=[];autosize=1;strokeColor=none;fillColor=none;" vertex="1" parent="WIyWlLk6GJQsqaUBKTNV-1">
          <mxGeometry x="420" y="628" width="40" height="30" as="geometry" />
        </mxCell>
        <mxCell id="ciezRnkLvZJ_yGblxe65-30" value="Điểm k hợp lệ&amp;nbsp;" style="rounded=1;whiteSpace=wrap;html=1;" vertex="1" parent="WIyWlLk6GJQsqaUBKTNV-1">
          <mxGeometry x="130" y="698" width="120" height="60" as="geometry" />
        </mxCell>
        <mxCell id="ciezRnkLvZJ_yGblxe65-32" value="Sai" style="text;html=1;align=center;verticalAlign=middle;resizable=0;points=[];autosize=1;strokeColor=none;fillColor=none;" vertex="1" parent="WIyWlLk6GJQsqaUBKTNV-1">
          <mxGeometry x="290" y="708" width="40" height="30" as="geometry" />
        </mxCell>
        <mxCell id="ciezRnkLvZJ_yGblxe65-35" value="End" style="rounded=1;whiteSpace=wrap;html=1;" vertex="1" parent="WIyWlLk6GJQsqaUBKTNV-1">
          <mxGeometry x="365" y="858" width="120" height="60" as="geometry" />
        </mxCell>
      </root>
    </mxGraphModel>
  </diagram>
</mxfile>
